<svg width="2416" height="1623" viewBox="0 0 2416 1623" xmlns="http://www.w3.org/2000/svg"><title>Untitled</title><g fill="none" fill-rule="evenodd"><path d="M.673.67h2415v1622H.673V.67z" fill-opacity=".2" fill="#D8D8D8"/><path d="M2363 127.278V935h-256V140.67H493v-91h1870v77.608zM54.673 474H493v254H54.673V474zm680 840h1139v254h-1139v-254zM235 844h92v91h-92v-91zm1102 200h92v91h-92v-91zM54.673 49.67H493V358H54.673V49.67z" fill="#D8D8D8"/><g fill="#4990E2"><path d="M617.5 263.357h2.812c4.687 0 8.436-.943 11.248-3.773 1.875-1.887 3.28-4.717 3.28-8.02 0-3.3-1.405-6.13-3.748-8.017-2.344-1.887-5.624-2.83-10.31-2.83-4.688 0-7.968.47-10.312.943v33.96h7.5l-.47-12.263zm0-16.037c.47 0 1.406-.472 3.28-.472 3.75 0 6.094 1.887 6.094 5.19 0 3.3-2.344 5.66-6.562 5.66H617.5V247.32z"/><path d="M602.972 286.47h37.962c4.686 0 8.904-3.774 8.904-8.963V239.3c0-4.715-3.75-8.96-8.904-8.96h-37.962c-4.687 0-8.905 3.773-8.905 8.96v38.207c.47 5.19 4.218 8.962 8.905 8.962zm-1.875-46.697c0-1.415.937-2.358 2.343-2.358h37.025c1.406 0 2.343.943 2.343 2.358v37.263c0 1.415-.937 2.358-2.343 2.358H603.44c-1.406 0-2.343-.943-2.343-2.358v-37.263z"/></g><path d="M131.283 1061.14c-1.033 0-2.066.257-3.357.257l-8.52-18.848c-.516-1.035-1.55-1.55-2.582-1.55h-5.422c-1.55 0-2.84 1.29-2.84 2.84 0 1.55 1.29 2.84 2.84 2.84h3.615l2.324 5.163H93.59l-1.55-3.615h1.292c1.548 0 2.84-1.292 2.84-2.84 0-1.55-1.292-2.84-2.84-2.84H83c-1.548 0-2.84 1.29-2.84 2.84 0 1.548 1.292 2.84 2.84 2.84h2.84l2.84 5.938-5.42 8.004c-1.808-.775-3.616-1.033-5.68-1.033-8.005 0-14.46 6.454-14.46 14.458 0 8.004 6.455 14.46 14.46 14.46 6.97 0 12.908-4.907 14.2-11.62h2.323c1.29 3.357 4.906 5.422 8.78 4.647 4.13-.774 6.712-4.905 5.937-9.036 0-.518-.258-1.034-.516-1.55l12.65-12.91 2.067 4.39c-3.613 2.58-5.937 6.97-5.937 11.618 0 8.004 6.455 14.46 14.46 14.46 8.003 0 14.458-6.456 14.458-14.46-.257-8.004-6.712-14.46-14.716-14.46v.006zm-35.63 9.036c-.775.774-1.292 1.55-1.55 2.582H91.78c-.517-2.84-1.808-5.422-3.873-7.23l3.356-5.164 4.39 9.812zm-11.103.258c.516.775 1.033 1.55 1.29 2.324H83l1.55-2.324zm-6.97 13.942c-4.907 0-8.78-3.872-8.78-8.778 0-4.906 3.873-8.78 8.78-8.78.773 0 1.548.26 2.323.26l-4.648 6.713c-.516.776-.775 2.067-.258 2.84.516 1.034 1.55 1.55 2.582 1.55h8.26c-1.29 3.616-4.39 6.197-8.26 6.197zm26.593-15.75c-1.033-.516-2.066-.516-3.357-.516l-4.647-10.327h18.846c0-.26-10.844 10.844-10.844 10.844zm27.11 15.75c-4.906 0-8.78-3.872-8.78-8.778 0-2.582 1.034-4.648 2.842-6.455l3.356 7.488c.518 1.034 1.55 1.55 2.584 1.55.516 0 .775 0 1.033-.257 1.55-.517 2.065-2.324 1.29-3.615l-3.356-7.488h.776c4.905 0 8.778 3.872 8.778 8.778.26 4.906-3.614 8.778-8.52 8.778z" fill="#4990E2"/><path d="M1865 940h-433v91h433v-91z" fill="#A5D5A1"/><path d="M1487.234 999.382v-7.29h-8.456c-.438 0-.875-.29-1.02-.583-.147-.44-.147-.876.145-1.168l5.394-5.832h-2.478c-.44 0-.877-.29-1.023-.582-.146-.437-.146-.875.146-1.166l4.957-5.395h-2.478c-.437 0-.874-.29-1.02-.583-.146-.437-.146-.875.146-1.166l6.852-7.29c.437-.437 1.166-.437 1.604 0l6.852 7.29c.292.29.292.73.146 1.166-.146.437-.583.583-1.02.583h-2.48l4.958 5.395c.29.29.29.73.146 1.166-.146.437-.584.583-1.02.583h-2.48l5.395 5.834c.294.292.294.73.148 1.166-.146.437-.583.583-1.02.583h-8.457v7.29h10.644c1.166 0 2.187 1.02 2.187 2.186 0 1.165-1.02 2.185-2.186 2.185h-23.426c-1.166 0-2.187-1.02-2.187-2.187.293-1.167 1.313-2.188 2.48-2.188h8.555v.002zm102 0v-7.29h-8.456c-.438 0-.875-.29-1.02-.583-.147-.44-.147-.876.145-1.168l5.394-5.832h-2.478c-.44 0-.877-.29-1.023-.582-.146-.437-.146-.875.146-1.166l4.957-5.395h-2.478c-.437 0-.874-.29-1.02-.583-.146-.437-.146-.875.146-1.166l6.852-7.29c.437-.437 1.166-.437 1.604 0l6.852 7.29c.292.29.292.73.146 1.166-.146.437-.583.583-1.02.583h-2.48l4.958 5.395c.29.29.29.73.146 1.166-.146.437-.584.583-1.02.583h-2.48l5.395 5.834c.294.292.294.73.148 1.166-.146.437-.583.583-1.02.583h-8.457v7.29h10.644c1.166 0 2.187 1.02 2.187 2.186 0 1.165-1.02 2.185-2.186 2.185h-23.426c-1.166 0-2.187-1.02-2.187-2.187.293-1.167 1.313-2.188 2.48-2.188h8.555v.002zm102 0v-7.29h-8.456c-.438 0-.875-.29-1.02-.583-.147-.44-.147-.876.145-1.168l5.394-5.832h-2.478c-.44 0-.877-.29-1.023-.582-.146-.437-.146-.875.146-1.166l4.957-5.395h-2.478c-.437 0-.874-.29-1.02-.583-.146-.437-.146-.875.146-1.166l6.852-7.29c.437-.437 1.166-.437 1.604 0l6.852 7.29c.292.29.292.73.146 1.166-.146.437-.583.583-1.02.583h-2.48l4.958 5.395c.29.29.29.73.146 1.166-.146.437-.584.583-1.02.583h-2.48l5.395 5.834c.294.292.294.73.148 1.166-.146.437-.583.583-1.02.583h-8.457v7.29h10.644c1.166 0 2.187 1.02 2.187 2.186 0 1.165-1.02 2.185-2.186 2.185h-23.426c-1.166 0-2.187-1.02-2.187-2.187.293-1.167 1.313-2.188 2.48-2.188h8.555v.002zm109 0v-7.29h-8.456c-.438 0-.875-.29-1.02-.583-.147-.44-.147-.876.145-1.168l5.394-5.832h-2.478c-.44 0-.877-.29-1.023-.582-.146-.437-.146-.875.146-1.166l4.957-5.395h-2.478c-.437 0-.874-.29-1.02-.583-.146-.437-.146-.875.146-1.166l6.852-7.29c.437-.437 1.166-.437 1.604 0l6.852 7.29c.292.29.292.73.146 1.166-.146.437-.583.583-1.02.583h-2.48l4.958 5.395c.29.29.29.73.146 1.166-.146.437-.584.583-1.02.583h-2.48l5.395 5.834c.294.292.294.73.148 1.166-.146.437-.583.583-1.02.583h-8.457v7.29h10.644c1.166 0 2.187 1.02 2.187 2.186 0 1.165-1.02 2.185-2.186 2.185h-23.426c-1.166 0-2.187-1.02-2.187-2.187.293-1.167 1.313-2.188 2.48-2.188h8.555v.002z" fill="#559C50"/><path d="M1481 1044h-49v46h49v-46zm0 50h-49v40h49v-40zm384 0h-327v40h327v-40zm0-50h-69v46h69v-46zm-86 0h-69v46h69v-46zm-86 0h-69v46h69v-46zm-86 0h-69v46h69v-46zM505 940H234v91h271v-91z" fill="#A5D5A1"/><path d="M302.234 999.382v-7.29h-8.456c-.438 0-.875-.29-1.02-.583-.147-.44-.147-.876.145-1.168l5.394-5.832h-2.478c-.44 0-.877-.29-1.023-.582-.146-.437-.146-.875.146-1.166l4.957-5.395h-2.478c-.437 0-.874-.29-1.02-.583-.146-.437-.146-.875.146-1.166l6.852-7.29c.437-.437 1.166-.437 1.604 0l6.852 7.29c.292.29.292.73.146 1.166-.146.437-.583.583-1.02.583h-2.48l4.958 5.395c.29.29.29.73.146 1.166-.146.437-.584.583-1.02.583h-2.48l5.395 5.834c.294.292.294.73.148 1.166-.146.437-.583.583-1.02.583h-8.457v7.29h10.644c1.166 0 2.187 1.02 2.187 2.186 0 1.165-1.02 2.185-2.186 2.185h-23.426c-1.166 0-2.187-1.02-2.187-2.187.293-1.167 1.313-2.188 2.48-2.188h8.555v.002zm125 0v-7.29h-8.456c-.438 0-.875-.29-1.02-.583-.147-.44-.147-.876.145-1.168l5.394-5.832h-2.478c-.44 0-.877-.29-1.023-.582-.146-.437-.146-.875.146-1.166l4.957-5.395h-2.478c-.437 0-.874-.29-1.02-.583-.146-.437-.146-.875.146-1.166l6.852-7.29c.437-.437 1.166-.437 1.604 0l6.852 7.29c.292.29.292.73.146 1.166-.146.437-.583.583-1.02.583h-2.48l4.958 5.395c.29.29.29.73.146 1.166-.146.437-.584.583-1.02.583h-2.48l5.395 5.834c.294.292.294.73.148 1.166-.146.437-.583.583-1.02.583h-8.457v7.29h10.644c1.166 0 2.187 1.02 2.187 2.186 0 1.165-1.02 2.185-2.186 2.185h-23.426c-1.166 0-2.187-1.02-2.187-2.187.293-1.167 1.313-2.188 2.48-2.188h8.555v.002z" fill="#559C50"/><path d="M505 1044H369v46h136v-46zm-145 0H235v46h125v-46z" fill="#A5D5A1"/><g><path d="M1168 940H735v91h433v-91z" fill="#A5D5A1"/><path d="M790.234 999.382v-7.29h-8.456c-.438 0-.875-.29-1.02-.583-.147-.44-.147-.876.145-1.168l5.394-5.832h-2.478c-.44 0-.877-.29-1.023-.582-.146-.437-.146-.875.146-1.166l4.957-5.395h-2.478c-.437 0-.874-.29-1.02-.583-.146-.437-.146-.875.146-1.166l6.852-7.29c.437-.437 1.166-.437 1.604 0l6.852 7.29c.292.29.292.73.146 1.166-.146.437-.583.583-1.02.583h-2.48l4.958 5.395c.29.29.29.73.146 1.166-.146.437-.584.583-1.02.583h-2.48l5.395 5.834c.294.292.294.73.148 1.166-.146.437-.583.583-1.02.583h-8.457v7.29h10.644c1.166 0 2.187 1.02 2.187 2.186 0 1.165-1.02 2.185-2.186 2.185h-23.426c-1.166 0-2.187-1.02-2.187-2.187.293-1.167 1.313-2.188 2.48-2.188h8.555v.002zm102 0v-7.29h-8.456c-.438 0-.875-.29-1.02-.583-.147-.44-.147-.876.145-1.168l5.394-5.832h-2.478c-.44 0-.877-.29-1.023-.582-.146-.437-.146-.875.146-1.166l4.957-5.395h-2.478c-.437 0-.874-.29-1.02-.583-.146-.437-.146-.875.146-1.166l6.852-7.29c.437-.437 1.166-.437 1.604 0l6.852 7.29c.292.29.292.73.146 1.166-.146.437-.583.583-1.02.583h-2.48l4.958 5.395c.29.29.29.73.146 1.166-.146.437-.584.583-1.02.583h-2.48l5.395 5.834c.294.292.294.73.148 1.166-.146.437-.583.583-1.02.583h-8.457v7.29h10.644c1.166 0 2.187 1.02 2.187 2.186 0 1.165-1.02 2.185-2.186 2.185h-23.426c-1.166 0-2.187-1.02-2.187-2.187.293-1.167 1.313-2.188 2.48-2.188h8.555v.002zm102 0v-7.29h-8.456c-.438 0-.875-.29-1.02-.583-.147-.44-.147-.876.145-1.168l5.394-5.832h-2.478c-.44 0-.877-.29-1.023-.582-.146-.437-.146-.875.146-1.166l4.957-5.395h-2.478c-.437 0-.874-.29-1.02-.583-.146-.437-.146-.875.146-1.166l6.852-7.29c.437-.437 1.166-.437 1.604 0l6.852 7.29c.292.29.292.73.146 1.166-.146.437-.583.583-1.02.583h-2.48l4.958 5.395c.29.29.29.73.146 1.166-.146.437-.584.583-1.02.583h-2.48l5.395 5.834c.294.292.294.73.148 1.166-.146.437-.583.583-1.02.583h-8.457v7.29h10.644c1.166 0 2.187 1.02 2.187 2.186 0 1.165-1.02 2.185-2.186 2.185h-23.426c-1.166 0-2.187-1.02-2.187-2.187.293-1.167 1.313-2.188 2.48-2.188h8.555v.002zm109 0v-7.29h-8.456c-.438 0-.875-.29-1.02-.583-.147-.44-.147-.876.145-1.168l5.394-5.832h-2.478c-.44 0-.877-.29-1.023-.582-.146-.437-.146-.875.146-1.166l4.957-5.395h-2.478c-.437 0-.874-.29-1.02-.583-.146-.437-.146-.875.146-1.166l6.852-7.29c.437-.437 1.166-.437 1.604 0l6.852 7.29c.292.29.292.73.146 1.166-.146.437-.583.583-1.02.583h-2.48l4.958 5.395c.29.29.29.73.146 1.166-.146.437-.584.583-1.02.583h-2.48l5.395 5.834c.294.292.294.73.148 1.166-.146.437-.583.583-1.02.583h-8.457v7.29h10.644c1.166 0 2.187 1.02 2.187 2.186 0 1.165-1.02 2.185-2.186 2.185h-23.426c-1.166 0-2.187-1.02-2.187-2.187.293-1.167 1.313-2.188 2.48-2.188h8.555v.002z" fill="#559C50"/><path d="M784 1044h-49v46h49v-46zm106 50H735v40h155v-40zm278 0H895v40h273v-40zm-460 270H435v40h273v-40zm-379 0H56v40h273v-40zm839-320H983v46h185v-46zm-189 0H788v46h191v-46z" fill="#A5D5A1"/></g><path d="M1245.5 782l15.5 25.455h-31L1245.5 782zm-4.56 25.455h9.12V842h-9.12v-34.545zM1355.5 782l15.5 25.455h-31L1355.5 782zm-4.56 25.455h9.12V842h-9.12v-34.545z" fill="#4A90E2"/></g></svg>